<svg xmlns="http://www.w3.org/2000/svg" width="640" height="420" viewBox="0 0 640 420" role="img" aria-labelledby="title desc">
  <title id="title">Dummy event image</title>
  <desc id="desc">A placeholder image for checking event image delivery.</desc>
  <defs>
    <linearGradient id="sky" x1="0" x2="1" y1="0" y2="1">
      <stop offset="0" stop-color="#dff3e4"/>
      <stop offset="1" stop-color="#f7f2d8"/>
    </linearGradient>
  </defs>
  <rect width="640" height="420" fill="url(#sky)"/>
  <circle cx="520" cy="86" r="48" fill="#ffcf5a"/>
  <path d="M0 278c88-46 158-52 238-18 92 39 182 18 263-23 56-29 97-31 139-14v197H0z" fill="#6fbf73"/>
  <path d="M0 326c96-32 179-20 263 18 113 51 213 29 377-46v122H0z" fill="#2f842f"/>
  <g fill="#ffffff" stroke="#256b33" stroke-width="8" stroke-linecap="round" stroke-linejoin="round">
    <path d="M122 222v-64h82v64"/>
    <path d="M112 158l51-43 52 43"/>
    <path d="M384 238v-78h96v78"/>
    <path d="M372 160l60-48 60 48"/>
  </g>
  <g fill="#256b33">
    <circle cx="270" cy="196" r="18"/>
    <rect x="260" y="214" width="20" height="62" rx="10"/>
    <circle cx="315" cy="182" r="16"/>
    <rect x="306" y="200" width="18" height="56" rx="9"/>
    <circle cx="352" cy="204" r="17"/>
    <rect x="343" y="222" width="19" height="58" rx="9"/>
  </g>
  <rect x="44" y="34" width="256" height="54" rx="27" fill="#ffffff" opacity=".86"/>
  <text x="72" y="68" fill="#256b33" font-family="Arial, sans-serif" font-size="24" font-weight="700">EVENT IMAGE</text>
</svg>
